<svg width="161" height="133" viewBox="0 0 161 133" fill="none" xmlns="http://www.w3.org/2000/svg">
<path d="M29.3319 7.42907C30.8465 6.14373 33.1696 6.65874 33.999 8.46374L38.8811 19.0878C38.9953 19.3362 39.1429 19.5678 39.3198 19.7762L46.8851 28.6908C48.1705 30.2054 47.6554 32.5285 45.8504 33.3579L35.2264 38.2401C34.978 38.3542 34.7464 38.5018 34.5379 38.6787L25.6233 46.244C24.1088 47.5294 21.7857 47.0144 20.9562 45.2094L16.0741 34.5853C15.96 34.3369 15.8124 34.1053 15.6355 33.8969L8.07014 24.9823C6.7848 23.4677 7.29981 21.1446 9.10482 20.3152L19.7288 15.433C19.9772 15.3189 20.2089 15.1713 20.4173 14.9944L29.3319 7.42907Z" fill="#2F201A"/>
<path d="M88.579 92.3907C89.0896 91.1688 90.6254 90.7716 91.6644 91.5927L100.3 98.4173C100.443 98.5303 100.601 98.6232 100.769 98.6935L110.924 102.938C112.146 103.448 112.543 104.984 111.722 106.023L104.897 114.658C104.784 114.801 104.692 114.959 104.621 115.127L100.377 125.283C99.8666 126.505 98.3308 126.902 97.2918 126.081L88.6564 119.256C88.5134 119.143 88.3557 119.05 88.1875 118.98L78.0321 114.736C76.8102 114.225 76.413 112.689 77.2341 111.65L84.0587 103.015C84.1717 102.872 84.2646 102.714 84.3349 102.546L88.579 92.3907Z" fill="#2F201A"/>
<path d="M146.037 29.8341C146.642 28.656 148.204 28.3806 149.176 29.2807L152.275 32.1531C152.409 32.2769 152.559 32.382 152.721 32.4652L156.481 34.3956C157.659 35.0006 157.934 36.5628 157.034 37.5342L154.162 40.6339C154.038 40.7676 153.933 40.9176 153.849 41.0797L151.919 44.8391C151.314 46.0171 149.752 46.2926 148.781 45.3925L145.681 42.5201C145.547 42.3962 145.397 42.2912 145.235 42.2079L141.476 40.2775C140.298 39.6726 140.022 38.1104 140.922 37.139L143.795 34.0392C143.918 33.9055 144.023 33.7556 144.107 33.5934L146.037 29.8341Z" fill="#2F201A"/>
</svg>
