<svg width="245" height="245" viewBox="0 0 245 245" fill="none" xmlns="http://www.w3.org/2000/svg">
<g filter="url(#filter0_b_1_1933)">
<circle cx="122.141" cy="122.141" r="90.5" transform="rotate(-27.6172 122.141 122.141)" fill="#EBEBEB" fill-opacity="0.01"/>
<circle cx="122.141" cy="122.141" r="89.5" transform="rotate(-27.6172 122.141 122.141)" stroke="#2F201A" stroke-width="2"/>
</g>
<path d="M54.6215 127.447L45.9067 126.98L46.0699 123.933C46.1024 123.326 46.2342 122.831 46.4653 122.448C46.6935 122.065 46.9886 121.786 47.3507 121.612C47.71 121.438 48.1024 121.362 48.5279 121.385C48.9024 121.405 49.208 121.488 49.4448 121.635C49.6818 121.778 49.8655 121.962 49.9957 122.185C50.1262 122.405 50.2188 122.642 50.2735 122.895L50.3586 122.9C50.3899 122.634 50.4979 122.371 50.6825 122.111C50.8672 121.85 51.1232 121.638 51.4507 121.473C51.7781 121.309 52.1716 121.239 52.6312 121.264C53.0681 121.287 53.4556 121.407 53.7939 121.625C54.1322 121.842 54.392 122.17 54.5734 122.609C54.7547 123.049 54.8269 123.612 54.7902 124.298L54.6215 127.447ZM53.7419 126.342L53.854 124.248C53.8909 123.559 53.7838 123.062 53.5326 122.759C53.2788 122.452 52.9604 122.288 52.5774 122.268C52.2824 122.252 52.006 122.313 51.7483 122.45C51.4878 122.586 51.2749 122.79 51.1096 123.06C50.9416 123.33 50.8473 123.655 50.827 124.035L50.7121 126.179L53.7419 126.342ZM49.793 126.13L49.8978 124.173C49.9148 123.855 49.8678 123.565 49.7566 123.303C49.6456 123.038 49.4807 122.825 49.2618 122.662C49.0431 122.497 48.7805 122.406 48.4741 122.389C48.0911 122.369 47.7592 122.485 47.4782 122.737C47.1945 122.989 47.0371 123.405 47.0061 123.984L46.8994 125.975L49.793 126.13Z" fill="black"/>
<path d="M55.9142 114.788L47.4227 112.774L48.6386 107.649L49.5508 107.865L48.5788 111.962L51.448 112.642L52.357 108.811L53.2692 109.028L52.3602 112.859L55.246 113.544L56.2337 109.381L57.1459 109.597L55.9142 114.788Z" fill="black"/>
<path d="M55.3619 95.5673C54.9458 95.4411 54.5555 95.4967 54.1911 95.7342C53.8268 95.9717 53.5387 96.3325 53.3269 96.8166C53.172 97.1706 53.0938 97.5054 53.0922 97.821C53.0917 98.1339 53.1592 98.4085 53.2947 98.6445C53.4313 98.8779 53.6272 99.0504 53.8822 99.162C54.0957 99.2554 54.3014 99.2849 54.4993 99.2506C54.6958 99.2125 54.8801 99.135 55.0522 99.0181C55.2217 98.9 55.3777 98.7666 55.5202 98.6181C55.6601 98.4685 55.7821 98.328 55.886 98.1967L56.4599 97.4803C56.6057 97.296 56.7825 97.0974 56.9904 96.8845C57.1994 96.6689 57.4384 96.4805 57.7075 96.3191C57.9751 96.154 58.2713 96.051 58.5962 96.0102C58.921 95.9694 59.2708 96.0309 59.6456 96.1949C60.0777 96.3839 60.4186 96.6679 60.6683 97.047C60.9191 97.4234 61.0528 97.8726 61.0694 98.3946C61.0871 98.914 60.9616 99.4808 60.6929 100.095C60.4424 100.668 60.1331 101.123 59.765 101.461C59.398 101.797 58.9968 102.012 58.5615 102.107C58.1274 102.199 57.6848 102.165 57.2339 102.005L57.6712 101.006C57.9845 101.112 58.2787 101.12 58.554 101.029C58.8277 100.935 59.0726 100.772 59.2884 100.541C59.5028 100.306 59.6795 100.03 59.8184 99.7125C59.9801 99.3429 60.0654 98.9848 60.0744 98.6384C60.0807 98.2907 60.0134 97.9838 59.8726 97.7175C59.7291 97.4501 59.5116 97.2526 59.2201 97.125C58.9546 97.0089 58.7061 96.9886 58.4747 97.064C58.2432 97.1395 58.0224 97.2755 57.8124 97.472C57.6024 97.6685 57.3969 97.8902 57.1958 98.1372L56.4843 98.998C56.0314 99.5441 55.5587 99.9265 55.0662 100.145C54.5736 100.364 54.0579 100.355 53.5192 100.119C53.0715 99.9236 52.734 99.6318 52.5068 99.244C52.2781 98.8525 52.1613 98.4107 52.1564 97.9186C52.15 97.4228 52.2585 96.9198 52.4816 96.4096C52.7071 95.8943 52.9999 95.4767 53.3601 95.1567C53.7176 94.8356 54.1064 94.6273 54.5264 94.532C54.9475 94.4341 55.3627 94.4669 55.7718 94.6303L55.3619 95.5673Z" fill="black"/>
<path d="M58.3713 87.2153L57.5933 86.6923L61.245 81.2602L62.023 81.7832L60.492 84.0607L66.9568 88.4067L66.3672 89.2837L59.9024 84.9378L58.3713 87.2153Z" fill="black"/>
<path d="M78.6108 66.6747C78.301 66.3696 77.9295 66.2376 77.4965 66.2786C77.0635 66.3196 76.6408 66.5053 76.2283 66.8356C75.9268 67.0771 75.702 67.3373 75.5539 67.616C75.4081 67.8929 75.3404 68.1673 75.3507 68.4393C75.3633 68.7095 75.4566 68.9533 75.6306 69.1706C75.7762 69.3524 75.9447 69.4741 76.1359 69.5357C76.3276 69.5932 76.5268 69.6102 76.7336 69.5866C76.9385 69.5608 77.1386 69.5152 77.3338 69.4499C77.5272 69.3823 77.7004 69.3146 77.8535 69.2466L78.6945 68.8788C78.9092 68.7833 79.158 68.6896 79.441 68.5976C79.7263 68.5038 80.0255 68.448 80.3387 68.4301C80.6524 68.4082 80.9625 68.4546 81.2692 68.5693C81.5758 68.6841 81.857 68.9011 82.1127 69.2204C82.4075 69.5885 82.5774 69.9984 82.6225 70.45C82.6697 70.8999 82.5795 71.3598 82.3517 71.8298C82.1261 72.298 81.7516 72.7416 81.2283 73.1607C80.7405 73.5514 80.255 73.811 79.7719 73.9395C79.291 74.0662 78.8358 74.0704 78.4063 73.9522C77.979 73.8321 77.6028 73.5965 77.2779 73.2453L78.1294 72.5634C78.3575 72.8028 78.6145 72.9465 78.9003 72.9942C79.1865 73.038 79.4788 73.0077 79.7774 72.9033C80.0763 72.7949 80.3611 72.6323 80.6316 72.4157C80.9465 72.1635 81.1884 71.8861 81.3573 71.5834C81.5244 71.2785 81.6074 70.9754 81.6064 70.6742C81.6035 70.3707 81.5027 70.0948 81.3038 69.8464C81.1226 69.6203 80.9121 69.4868 80.672 69.4461C80.432 69.4054 80.1733 69.4233 79.896 69.4998C79.6188 69.5762 79.3338 69.6771 79.041 69.8024L78.011 70.2341C77.3563 70.5073 76.7601 70.6263 76.2223 70.5911C75.6846 70.5559 75.2319 70.3088 74.8643 69.8498C74.5588 69.4684 74.3956 69.0532 74.3745 68.6042C74.3538 68.1512 74.4556 67.7057 74.6799 67.2677C74.9046 66.8257 75.2343 66.4306 75.6689 66.0826C76.108 65.7309 76.5613 65.4971 77.0289 65.3811C77.4947 65.2628 77.9357 65.259 78.3519 65.3697C78.7703 65.4787 79.1227 65.7005 79.4091 66.0354L78.6108 66.6747Z" fill="black"/>
<path d="M89.2813 67.3013L85.1293 59.6249L89.7621 57.1192L90.2081 57.9438L86.5049 59.9468L87.9078 62.5405L91.3712 60.6673L91.8172 61.4919L88.3538 63.3651L89.7648 65.9739L93.528 63.9385L93.9741 64.7631L89.2813 67.3013Z" fill="black"/>
<path d="M100.753 61.7946L98.0375 53.5004L100.84 52.583C101.488 52.3709 102.056 52.3075 102.544 52.3927C103.032 52.4753 103.438 52.6756 103.763 52.9936C104.089 53.3116 104.331 53.7149 104.491 54.2036C104.651 54.6923 104.693 55.1583 104.617 55.6017C104.541 56.0451 104.332 56.4424 103.99 56.7936C103.646 57.1422 103.153 57.4216 102.511 57.632L100.243 58.3744L99.9458 57.4672L102.181 56.7354C102.624 56.5904 102.959 56.409 103.187 56.191C103.417 55.9721 103.554 55.724 103.598 55.4466C103.643 55.1657 103.612 54.8592 103.503 54.5271C103.394 54.195 103.237 53.9251 103.032 53.7174C102.826 53.5096 102.565 53.3829 102.248 53.3372C101.93 53.2887 101.547 53.3379 101.099 53.4846L99.3335 54.0626L101.757 61.4658L100.753 61.7946ZM103.437 56.7907L106.698 59.8484L105.532 60.2302L102.303 57.1619L103.437 56.7907Z" fill="black"/>
<path d="M112.233 49.7033L115.754 56.652L115.856 56.6388L117.472 49.0183L118.571 48.8746L116.525 57.9437L115.443 58.0851L111.134 49.847L112.233 49.7033Z" fill="black"/>
<path d="M128.024 48.667L127.773 57.3907L126.717 57.3603L126.967 48.6366L128.024 48.667Z" fill="black"/>
<path d="M143.479 53.3733L142.441 53.1764C142.436 52.8661 142.378 52.5833 142.268 52.3281C142.16 52.0734 142.011 51.8487 141.823 51.6539C141.638 51.4568 141.421 51.2943 141.174 51.1664C140.926 51.0385 140.66 50.9475 140.375 50.8935C139.856 50.795 139.361 50.837 138.89 51.0194C138.421 51.2024 138.014 51.5257 137.669 51.9893C137.327 52.4535 137.085 53.0568 136.944 53.7993C136.803 54.5417 136.807 55.1916 136.956 55.749C137.107 56.3069 137.368 56.7567 137.737 57.0985C138.108 57.4408 138.554 57.6612 139.073 57.7597C139.358 57.8137 139.638 57.8265 139.916 57.7981C140.193 57.7698 140.453 57.6992 140.697 57.5864C140.945 57.4714 141.165 57.3152 141.359 57.1177C141.556 56.918 141.713 56.676 141.831 56.3918L142.869 56.5887C142.708 57.0121 142.491 57.3773 142.219 57.6842C141.947 57.9911 141.634 58.2368 141.281 58.4214C140.928 58.6032 140.549 58.7207 140.143 58.7737C139.739 58.8273 139.321 58.8131 138.889 58.731C138.157 58.5923 137.541 58.2903 137.039 57.825C136.538 57.3597 136.186 56.7668 135.984 56.0461C135.783 55.3255 135.768 54.513 135.939 53.6087C136.111 52.7043 136.422 51.9538 136.874 51.357C137.325 50.7603 137.87 50.3373 138.507 50.088C139.144 49.8387 139.828 49.7835 140.56 49.9222C140.992 50.0043 141.386 50.1441 141.742 50.3417C142.101 50.5398 142.41 50.7895 142.671 51.0905C142.933 51.3888 143.134 51.7306 143.275 52.1159C143.416 52.4984 143.484 52.9175 143.479 53.3733Z" fill="black"/>
<path d="M148.789 61.1827L151.976 53.0582L156.879 54.9816L156.537 55.8543L152.617 54.3169L151.541 57.0621L155.206 58.4999L154.864 59.3727L151.198 57.9348L150.115 60.6959L154.098 62.2583L153.756 63.131L148.789 61.1827Z" fill="black"/>
<path d="M167.897 63.3345C168.08 62.9403 168.08 62.5461 167.896 62.152C167.712 61.7578 167.395 61.422 166.946 61.1443C166.617 60.9413 166.296 60.8168 165.984 60.7709C165.674 60.7265 165.393 60.7548 165.14 60.8558C164.89 60.9583 164.692 61.128 164.545 61.3649C164.423 61.5631 164.365 61.7626 164.371 61.9634C164.381 62.1633 164.432 62.3567 164.524 62.5435C164.617 62.7279 164.727 62.9011 164.854 63.063C164.982 63.2225 165.104 63.363 165.22 63.4843L165.849 64.1531C166.011 64.3233 166.182 64.5263 166.364 64.762C166.548 64.9992 166.701 65.2623 166.823 65.5514C166.949 65.8395 167.009 66.1472 167.004 66.4746C166.999 66.802 166.889 67.1397 166.674 67.4878C166.426 67.889 166.097 68.1866 165.687 68.3806C165.279 68.5761 164.815 68.6455 164.296 68.5886C163.779 68.5332 163.236 68.3294 162.665 67.9771C162.134 67.6487 161.726 67.2785 161.443 66.8665C161.162 66.4561 161.006 66.0287 160.973 65.5844C160.942 65.1416 161.038 64.7082 161.26 64.2842L162.188 64.8574C162.039 65.1527 161.99 65.443 162.041 65.7282C162.096 66.0125 162.222 66.2777 162.421 66.5239C162.623 66.7692 162.872 66.9828 163.167 67.165C163.51 67.3769 163.853 67.5117 164.195 67.5692C164.538 67.6243 164.851 67.6008 165.135 67.4987C165.42 67.3942 165.646 67.2066 165.813 66.9358C165.965 66.6893 166.02 66.4461 165.978 66.2064C165.936 65.9666 165.832 65.7289 165.667 65.4934C165.502 65.2579 165.311 65.0233 165.095 64.7895L164.342 63.9642C163.865 63.4392 163.553 62.9174 163.406 62.3991C163.259 61.8807 163.339 61.3713 163.648 60.871C163.905 60.4552 164.241 60.1621 164.657 59.9915C165.077 59.8201 165.531 59.7664 166.019 59.8307C166.511 59.894 166.993 60.072 167.467 60.3646C167.946 60.6601 168.318 61.0087 168.584 61.4102C168.852 61.8093 169.004 62.2234 169.039 62.6527C169.077 63.0834 168.986 63.4898 168.767 63.8719L167.897 63.3345Z" fill="black"/>
<path d="M189.793 116.105L198.508 116.572L198.345 119.619C198.312 120.226 198.181 120.721 197.95 121.104C197.721 121.487 197.426 121.766 197.064 121.94C196.705 122.114 196.312 122.19 195.887 122.167C195.512 122.147 195.207 122.064 194.97 121.917C194.733 121.774 194.549 121.59 194.419 121.367C194.289 121.147 194.196 120.91 194.141 120.657L194.056 120.652C194.025 120.918 193.917 121.181 193.732 121.441C193.548 121.702 193.292 121.914 192.964 122.079C192.637 122.243 192.243 122.313 191.784 122.289C191.347 122.265 190.959 122.145 190.621 121.928C190.283 121.71 190.023 121.382 189.841 120.943C189.66 120.503 189.588 119.941 189.625 119.254L189.793 116.105ZM190.673 117.211L190.561 119.304C190.524 119.994 190.631 120.49 190.882 120.794C191.136 121.1 191.454 121.264 191.837 121.284C192.132 121.3 192.409 121.24 192.666 121.103C192.927 120.966 193.14 120.762 193.305 120.492C193.473 120.223 193.567 119.898 193.588 119.518L193.703 117.373L190.673 117.211ZM194.622 117.422L194.517 119.38C194.5 119.697 194.547 119.987 194.658 120.249C194.769 120.514 194.934 120.728 195.153 120.89C195.372 121.055 195.634 121.146 195.941 121.163C196.324 121.183 196.656 121.067 196.937 120.815C197.22 120.563 197.378 120.147 197.409 119.569L197.515 117.577L194.622 117.422Z" fill="black"/>
<path d="M188.501 128.764L196.992 130.779L195.776 135.903L194.864 135.687L195.836 131.591L192.967 130.91L192.058 134.741L191.146 134.525L192.055 130.693L189.169 130.009L188.181 134.172L187.269 133.955L188.501 128.764Z" fill="black"/>
<path d="M189.053 147.985C189.469 148.111 189.859 148.056 190.224 147.818C190.588 147.581 190.876 147.22 191.088 146.736C191.243 146.382 191.321 146.047 191.323 145.731C191.323 145.418 191.256 145.144 191.12 144.908C190.983 144.674 190.788 144.502 190.533 144.39C190.319 144.297 190.113 144.267 189.915 144.302C189.719 144.34 189.535 144.417 189.363 144.534C189.193 144.652 189.037 144.786 188.895 144.934C188.755 145.084 188.633 145.224 188.529 145.356L187.955 146.072C187.809 146.256 187.632 146.455 187.424 146.668C187.215 146.883 186.976 147.072 186.707 147.233C186.44 147.398 186.143 147.501 185.819 147.542C185.494 147.583 185.144 147.521 184.769 147.357C184.337 147.168 183.996 146.884 183.747 146.505C183.496 146.129 183.362 145.68 183.345 145.158C183.328 144.638 183.453 144.071 183.722 143.457C183.972 142.885 184.282 142.429 184.65 142.091C185.017 141.755 185.418 141.54 185.853 141.445C186.287 141.353 186.73 141.387 187.181 141.547L186.744 142.547C186.43 142.44 186.136 142.433 185.861 142.523C185.587 142.617 185.342 142.78 185.126 143.011C184.912 143.246 184.735 143.522 184.596 143.84C184.435 144.209 184.349 144.567 184.34 144.914C184.334 145.262 184.401 145.568 184.542 145.835C184.686 146.102 184.903 146.3 185.195 146.427C185.46 146.543 185.709 146.564 185.94 146.488C186.172 146.413 186.392 146.277 186.602 146.08C186.812 145.884 187.018 145.662 187.219 145.415L187.93 144.554C188.383 144.008 188.856 143.626 189.349 143.407C189.841 143.189 190.357 143.197 190.896 143.433C191.343 143.629 191.681 143.92 191.908 144.308C192.137 144.7 192.254 145.142 192.258 145.634C192.265 146.129 192.156 146.632 191.933 147.143C191.708 147.658 191.415 148.076 191.055 148.396C190.697 148.717 190.308 148.925 189.888 149.02C189.467 149.118 189.052 149.085 188.643 148.922L189.053 147.985Z" fill="black"/>
<path d="M186.043 156.337L186.821 156.86L183.17 162.292L182.392 161.769L183.923 159.492L177.458 155.146L178.048 154.269L184.512 158.614L186.043 156.337Z" fill="black"/>
<path d="M165.804 176.878C166.114 177.183 166.485 177.315 166.918 177.274C167.351 177.233 167.774 177.047 168.186 176.717C168.488 176.475 168.713 176.215 168.861 175.936C169.007 175.659 169.074 175.385 169.064 175.113C169.051 174.843 168.958 174.599 168.784 174.382C168.639 174.2 168.47 174.078 168.279 174.017C168.087 173.959 167.888 173.942 167.681 173.966C167.476 173.991 167.276 174.037 167.081 174.102C166.888 174.17 166.714 174.238 166.561 174.306L165.72 174.673C165.506 174.769 165.257 174.863 164.974 174.955C164.688 175.048 164.389 175.104 164.076 175.122C163.762 175.144 163.452 175.098 163.146 174.983C162.839 174.868 162.558 174.651 162.302 174.332C162.007 173.964 161.837 173.554 161.792 173.102C161.745 172.652 161.835 172.192 162.063 171.722C162.289 171.254 162.663 170.811 163.186 170.392C163.674 170.001 164.16 169.741 164.643 169.613C165.124 169.486 165.579 169.482 166.008 169.6C166.436 169.72 166.812 169.956 167.137 170.307L166.285 170.989C166.057 170.749 165.8 170.606 165.514 170.558C165.228 170.514 164.936 170.545 164.637 170.649C164.338 170.757 164.054 170.92 163.783 171.137C163.468 171.389 163.226 171.666 163.057 171.969C162.89 172.274 162.807 172.577 162.808 172.878C162.811 173.182 162.912 173.457 163.111 173.706C163.292 173.932 163.503 174.065 163.743 174.106C163.983 174.147 164.241 174.129 164.519 174.052C164.796 173.976 165.081 173.875 165.374 173.75L166.404 173.318C167.058 173.045 167.655 172.926 168.192 172.961C168.73 172.996 169.183 173.243 169.55 173.702C169.856 174.084 170.019 174.499 170.04 174.948C170.061 175.401 169.959 175.847 169.735 176.285C169.51 176.727 169.18 177.122 168.746 177.47C168.307 177.821 167.853 178.055 167.386 178.171C166.92 178.289 166.479 178.293 166.063 178.183C165.644 178.074 165.292 177.852 165.006 177.517L165.804 176.878Z" fill="black"/>
<path d="M155.134 176.251L159.286 183.927L154.653 186.433L154.207 185.608L157.91 183.605L156.507 181.012L153.044 182.885L152.598 182.06L156.061 180.187L154.65 177.578L150.887 179.614L150.441 178.789L155.134 176.251Z" fill="black"/>
<path d="M143.662 181.758L146.377 190.052L143.575 190.969C142.927 191.181 142.359 191.245 141.87 191.159C141.383 191.077 140.977 190.877 140.651 190.559C140.326 190.241 140.083 189.837 139.924 189.349C139.764 188.86 139.722 188.394 139.798 187.951C139.874 187.507 140.083 187.11 140.425 186.759C140.769 186.41 141.261 186.131 141.904 185.92L144.172 185.178L144.469 186.085L142.233 186.817C141.791 186.962 141.455 187.143 141.228 187.361C140.998 187.58 140.861 187.828 140.817 188.106C140.771 188.387 140.803 188.693 140.912 189.025C141.02 189.357 141.178 189.627 141.383 189.835C141.589 190.043 141.85 190.169 142.167 190.215C142.484 190.264 142.867 190.214 143.316 190.068L145.081 189.49L142.658 182.086L143.662 181.758ZM140.978 186.762L137.717 183.704L138.883 183.322L142.112 186.39L140.978 186.762Z" fill="black"/>
<path d="M132.182 193.849L128.66 186.9L128.559 186.913L126.942 194.534L125.844 194.678L127.89 185.609L128.971 185.467L133.28 193.705L132.182 193.849Z" fill="black"/>
<path d="M116.391 194.885L116.642 186.162L117.698 186.192L117.448 194.916L116.391 194.885Z" fill="black"/>
<path d="M100.936 190.179L101.974 190.376C101.979 190.686 102.037 190.969 102.147 191.224C102.255 191.479 102.403 191.704 102.592 191.898C102.777 192.095 102.994 192.258 103.241 192.386C103.489 192.514 103.755 192.605 104.039 192.659C104.559 192.757 105.054 192.715 105.525 192.533C105.994 192.35 106.4 192.027 106.746 191.563C107.088 191.099 107.33 190.495 107.471 189.753C107.612 189.011 107.608 188.361 107.459 187.803C107.307 187.245 107.047 186.796 106.678 186.454C106.307 186.111 105.861 185.891 105.342 185.793C105.057 185.739 104.776 185.726 104.499 185.754C104.222 185.782 103.961 185.853 103.717 185.966C103.47 186.081 103.249 186.237 103.056 186.435C102.859 186.634 102.702 186.876 102.584 187.16L101.546 186.964C101.707 186.54 101.924 186.175 102.196 185.868C102.468 185.561 102.781 185.315 103.134 185.131C103.487 184.949 103.866 184.832 104.272 184.779C104.676 184.725 105.094 184.739 105.526 184.821C106.258 184.96 106.874 185.262 107.376 185.727C107.877 186.193 108.229 186.785 108.43 187.506C108.632 188.227 108.647 189.039 108.476 189.944C108.304 190.848 107.992 191.598 107.541 192.195C107.089 192.792 106.545 193.215 105.908 193.464C105.271 193.714 104.587 193.769 103.855 193.63C103.423 193.548 103.028 193.408 102.673 193.211C102.314 193.012 102.004 192.763 101.743 192.462C101.482 192.163 101.281 191.822 101.14 191.436C100.998 191.054 100.93 190.635 100.936 190.179Z" fill="black"/>
<path d="M95.626 182.369L92.439 190.494L87.5357 188.571L87.878 187.698L91.7975 189.235L92.8744 186.49L89.2088 185.052L89.5511 184.18L93.2167 185.617L94.2998 182.856L90.3168 181.294L90.6592 180.421L95.626 182.369Z" fill="black"/>
<path d="M76.518 180.218C76.3346 180.612 76.3349 181.006 76.5189 181.4C76.7029 181.794 77.0197 182.13 77.4693 182.408C77.798 182.611 78.1185 182.735 78.4307 182.781C78.7405 182.826 79.0218 182.797 79.2745 182.696C79.5248 182.594 79.7231 182.424 79.8694 182.187C79.9918 181.989 80.0499 181.79 80.0437 181.589C80.0336 181.389 79.9827 181.196 79.8911 181.009C79.798 180.824 79.6879 180.651 79.5608 180.489C79.4323 180.33 79.3104 180.189 79.195 180.068L78.5662 179.399C78.4042 179.229 78.2324 179.026 78.0508 178.79C77.8667 178.553 77.7137 178.29 77.5917 178.001C77.4658 177.713 77.4054 177.405 77.4106 177.078C77.4158 176.75 77.5258 176.413 77.7408 176.064C77.9886 175.663 78.3177 175.366 78.728 175.172C79.1359 174.976 79.5994 174.907 80.1186 174.964C80.6353 175.019 81.1789 175.223 81.7494 175.575C82.2811 175.904 82.6886 176.274 82.9717 176.686C83.2525 177.096 83.4093 177.524 83.442 177.968C83.4724 178.411 83.3767 178.844 83.1549 179.268L82.2268 178.695C82.3757 178.4 82.4248 178.109 82.3739 177.824C82.3191 177.54 82.1924 177.275 81.9938 177.028C81.7913 176.783 81.5427 176.569 81.2478 176.387C80.9046 176.175 80.562 176.041 80.2202 175.983C79.877 175.928 79.5636 175.951 79.2802 176.054C78.9952 176.158 78.7692 176.346 78.602 176.616C78.4497 176.863 78.3947 177.106 78.4369 177.346C78.4792 177.586 78.5828 177.823 78.7479 178.059C78.913 178.294 79.1036 178.529 79.3199 178.763L80.0723 179.588C80.5494 180.113 80.8616 180.635 81.009 181.153C81.1563 181.672 81.0754 182.181 80.7664 182.681C80.5096 183.097 80.1733 183.39 79.7575 183.561C79.3377 183.732 78.8838 183.786 78.396 183.722C77.9042 183.658 77.4214 183.48 76.9476 183.188C76.4691 182.892 76.0966 182.544 75.8304 182.142C75.5627 181.743 75.4111 181.329 75.3757 180.9C75.3378 180.469 75.4286 180.062 75.6479 179.68L76.518 180.218Z" fill="black"/>
<circle cx="60.5635" cy="153.875" r="4" transform="rotate(-27.6172 60.5635 153.875)" fill="#2F201A"/>
<circle cx="183.727" cy="89.4396" r="4" transform="rotate(-27.6172 183.727 89.4396)" fill="#2F201A"/>
<defs>
<filter id="filter0_b_1_1933" x="-18.3773" y="-18.3773" width="281.037" height="281.037" filterUnits="userSpaceOnUse" color-interpolation-filters="sRGB">
<feFlood flood-opacity="0" result="BackgroundImageFix"/>
<feGaussianBlur in="BackgroundImageFix" stdDeviation="25"/>
<feComposite in2="SourceAlpha" operator="in" result="effect1_backgroundBlur_1_1933"/>
<feBlend mode="normal" in="SourceGraphic" in2="effect1_backgroundBlur_1_1933" result="shape"/>
</filter>
</defs>
</svg>
