<svg width="25" height="25" viewBox="0 0 25 25" fill="none" xmlns="http://www.w3.org/2000/svg">
<circle cx="12.5" cy="12.5" r="12.5" fill="#E9D415"/>
<g clip-path="url(#clip0_1_1820)">
<path d="M13.0027 9.85537C11.2636 9.85537 9.86091 11.2581 9.86091 12.9972C9.86091 14.7362 11.2636 16.139 13.0027 16.139C14.7418 16.139 16.1445 14.7362 16.1445 12.9972C16.1445 11.2581 14.7418 9.85537 13.0027 9.85537ZM13.0027 15.0397C11.8789 15.0397 10.9601 14.1237 10.9601 12.9972C10.9601 11.8706 11.8761 10.9546 13.0027 10.9546C14.1293 10.9546 15.0453 11.8706 15.0453 12.9972C15.0453 14.1237 14.1265 15.0397 13.0027 15.0397ZM17.0058 9.72686C17.0058 10.1343 16.6777 10.4597 16.273 10.4597C15.8656 10.4597 15.5402 10.1315 15.5402 9.72686C15.5402 9.32217 15.8683 8.99404 16.273 8.99404C16.6777 8.99404 17.0058 9.32217 17.0058 9.72686ZM19.0867 10.4706C19.0402 9.48896 18.816 8.61943 18.0969 7.90303C17.3804 7.18662 16.5109 6.9624 15.5293 6.91318C14.5176 6.85576 11.4851 6.85576 10.4734 6.91318C9.49451 6.95967 8.62498 7.18389 7.90584 7.90029C7.18669 8.6167 6.96521 9.48623 6.91599 10.4679C6.85857 11.4796 6.85857 14.512 6.91599 15.5237C6.96248 16.5054 7.18669 17.3749 7.90584 18.0913C8.62498 18.8077 9.49177 19.0319 10.4734 19.0812C11.4851 19.1386 14.5176 19.1386 15.5293 19.0812C16.5109 19.0347 17.3804 18.8104 18.0969 18.0913C18.8133 17.3749 19.0375 16.5054 19.0867 15.5237C19.1441 14.512 19.1441 11.4823 19.0867 10.4706ZM17.7797 16.6093C17.5664 17.1452 17.1535 17.5581 16.6148 17.7741C15.8082 18.094 13.8941 18.0202 13.0027 18.0202C12.1113 18.0202 10.1945 18.0913 9.3906 17.7741C8.85466 17.5608 8.44177 17.1479 8.22576 16.6093C7.90584 15.8026 7.97966 13.8886 7.97966 12.9972C7.97966 12.1058 7.90857 10.189 8.22576 9.38506C8.43904 8.84912 8.85193 8.43623 9.3906 8.22021C10.1972 7.90029 12.1113 7.97412 13.0027 7.97412C13.8941 7.97412 15.8109 7.90303 16.6148 8.22021C17.1508 8.4335 17.5636 8.84639 17.7797 9.38506C18.0996 10.1917 18.0258 12.1058 18.0258 12.9972C18.0258 13.8886 18.0996 15.8054 17.7797 16.6093Z" fill="#2F201A"/>
</g>
<defs>
<clipPath id="clip0_1_1820">
<rect width="14" height="14" fill="white" transform="translate(6 6)"/>
</clipPath>
</defs>
</svg>
