<svg width="36" height="36" viewBox="0 0 36 36" fill="none" xmlns="http://www.w3.org/2000/svg">
<rect x="1.5" y="1.5" width="33" height="33" fill="#2F201A" stroke="#E9D415" stroke-width="3"/>
<path d="M18.0039 13.5078C15.5195 13.5078 13.5156 15.5117 13.5156 17.9961C13.5156 20.4805 15.5195 22.4844 18.0039 22.4844C20.4883 22.4844 22.4922 20.4805 22.4922 17.9961C22.4922 15.5117 20.4883 13.5078 18.0039 13.5078ZM18.0039 20.9141C16.3984 20.9141 15.0859 19.6055 15.0859 17.9961C15.0859 16.3867 16.3945 15.0781 18.0039 15.0781C19.6133 15.0781 20.9219 16.3867 20.9219 17.9961C20.9219 19.6055 19.6094 20.9141 18.0039 20.9141ZM23.7227 13.3242C23.7227 13.9062 23.2539 14.3711 22.6758 14.3711C22.0938 14.3711 21.6289 13.9023 21.6289 13.3242C21.6289 12.7461 22.0977 12.2773 22.6758 12.2773C23.2539 12.2773 23.7227 12.7461 23.7227 13.3242ZM26.6953 14.3867C26.6289 12.9844 26.3086 11.7422 25.2812 10.7187C24.2578 9.69531 23.0156 9.375 21.6133 9.30469C20.168 9.22266 15.8359 9.22266 14.3906 9.30469C12.9922 9.37109 11.75 9.69141 10.7227 10.7148C9.69531 11.7383 9.37891 12.9805 9.30859 14.3828C9.22656 15.8281 9.22656 20.1602 9.30859 21.6055C9.375 23.0078 9.69531 24.25 10.7227 25.2734C11.75 26.2969 12.9883 26.6172 14.3906 26.6875C15.8359 26.7695 20.168 26.7695 21.6133 26.6875C23.0156 26.6211 24.2578 26.3008 25.2812 25.2734C26.3047 24.25 26.625 23.0078 26.6953 21.6055C26.7773 20.1602 26.7773 15.832 26.6953 14.3867ZM24.8281 23.1562C24.5234 23.9219 23.9336 24.5117 23.1641 24.8203C22.0117 25.2773 19.2773 25.1719 18.0039 25.1719C16.7305 25.1719 13.9922 25.2734 12.8438 24.8203C12.0781 24.5156 11.4883 23.9258 11.1797 23.1562C10.7227 22.0039 10.8281 19.2695 10.8281 17.9961C10.8281 16.7227 10.7266 13.9844 11.1797 12.8359C11.4844 12.0703 12.0742 11.4805 12.8438 11.1719C13.9961 10.7148 16.7305 10.8203 18.0039 10.8203C19.2773 10.8203 22.0156 10.7187 23.1641 11.1719C23.9297 11.4766 24.5195 12.0664 24.8281 12.8359C25.2852 13.9883 25.1797 16.7227 25.1797 17.9961C25.1797 19.2695 25.2852 22.0078 24.8281 23.1562Z" fill="white"/>
</svg>
