<svg width="1675" height="619" viewBox="0 0 1675 619" fill="none" xmlns="http://www.w3.org/2000/svg">
<path d="M266.43 43.0107C330.974 -78.8512 476.537 -61.3009 541.251 -37.2929C1216.56 107.995 1180.99 226.489 1414.74 338.522C1706.92 478.564 1288.89 600.51 1027.1 554.714C765.3 508.919 684.672 794.328 558.792 489.244C432.913 184.16 185.749 195.338 266.43 43.0107Z" stroke="white"/>
<path d="M212.756 18.9426C282.451 -112.689 439.577 -93.7592 509.429 -67.8403C1238.37 88.9618 1199.95 216.95 1452.25 337.913C1767.63 489.117 1316.36 620.902 1033.77 571.486C751.184 522.07 664.098 830.349 528.271 500.857C392.443 171.365 125.638 183.482 212.756 18.9426Z" stroke="white"/>
<path d="M145.776 -8.54448C221.454 -151.446 392.102 -130.877 467.967 -102.73C1259.64 67.5831 1217.93 206.532 1491.96 337.885C1834.49 502.077 1344.4 645.104 1037.49 591.424C730.585 537.744 636.04 872.424 488.49 514.689C340.941 156.955 51.1801 170.082 145.776 -8.54448Z" stroke="white"/>
</svg>
