<svg width="1232" height="619" viewBox="0 0 1232 619" fill="none" xmlns="http://www.w3.org/2000/svg">
<path d="M185.535 125.702C230.311 47.4185 338.42 62.4678 386.878 79.778C889.981 191.449 866.556 268.232 1042.2 347.347C1261.77 446.24 955.498 515.962 760.716 479.57C565.935 443.178 513.247 628.244 412.69 425.251C312.133 222.257 129.564 223.557 185.535 125.702Z" stroke="white"/>
<path d="M145.243 108.622C193.591 24.0618 310.288 40.297 362.593 58.9847C905.652 179.508 880.352 262.444 1069.94 347.863C1306.93 454.636 976.317 529.996 766.065 490.724C555.813 451.452 498.906 651.347 390.394 432.117C281.883 212.886 84.8076 214.323 145.243 108.622Z" stroke="white"/>
<path d="M95.0242 88.9768C147.523 -2.82292 274.263 14.8157 331.07 35.11C920.868 166.017 893.4 256.055 1099.31 348.812C1356.71 464.758 997.651 546.539 769.304 503.88C540.957 461.221 479.175 678.236 361.304 440.212C243.433 202.188 29.4004 203.727 95.0242 88.9768Z" stroke="white"/>
</svg>
