<svg width="120" height="41" viewBox="0 0 120 41" fill="none" xmlns="http://www.w3.org/2000/svg">
<path d="M15.0187 15.3333C15.0187 19.7516 15.9863 20 10.2986 20C4.61082 20 0 16.4183 0 12C0 7.58172 4.61082 4 10.2986 4C15.9863 4 15.0187 10.9151 15.0187 15.3333Z" fill="#E9D415"/>
<path d="M16.062 15.3333C16.062 19.7516 15.0997 20 20.7568 20C26.414 20 31 16.4183 31 12C31 7.58172 26.414 4 20.7568 4C15.0997 4 16.062 10.9151 16.062 15.3333Z" fill="#E9D415"/>
<path d="M15.9813 25.6667C15.9813 21.2484 15.0137 21 20.7014 21C26.3892 21 31 24.5817 31 29C31 33.4183 26.3892 37 20.7014 37C15.0137 37 15.9813 30.0849 15.9813 25.6667Z" fill="#E9D415"/>
<path d="M14.938 25.6667C14.938 21.2484 15.9003 21 10.2432 21C4.58603 21 3.1292e-06 24.5817 2.01587e-06 29C9.02534e-07 33.4183 4.58603 37 10.2432 37C15.9003 37 14.938 30.0849 14.938 25.6667Z" fill="#E9D415"/>
<path d="M19.092 21.56V30.776H22.152C25.512 30.776 27.192 29.144 27.192 25.88C27.192 24.752 26.772 23.756 25.932 22.892C25.092 22.004 23.688 21.56 21.72 21.56H19.092ZM19.092 12.164V20.516H20.568C23.928 20.516 25.608 18.992 25.608 15.944C25.608 13.424 23.784 12.164 20.136 12.164H19.092ZM13.512 32V31.244C14.808 31.244 15.564 31.004 15.78 30.524V12.416C15.564 11.936 14.808 11.696 13.512 11.696V10.94H20.136C23.136 10.94 25.392 11.432 26.904 12.416C28.44 13.4 29.208 14.564 29.208 15.908C29.208 18.356 27.936 20.012 25.392 20.876C27.192 21.284 28.536 21.956 29.424 22.892C30.336 23.804 30.792 24.788 30.792 25.844C30.792 27.668 30.06 29.156 28.596 30.308C27.156 31.436 25.008 32 22.152 32H13.512ZM36.8982 23.324C36.9222 25.34 37.4982 27.128 38.6262 28.688C39.7782 30.224 41.0622 30.992 42.4782 30.992C44.5662 30.992 46.2462 30.2 47.5182 28.616L48.3822 29.048C47.6862 30.2 46.7742 31.04 45.6462 31.568C44.5422 32.096 43.0782 32.36 41.2542 32.36C40.3422 32.36 39.4662 32.228 38.6262 31.964C37.7862 31.676 36.9582 31.22 36.1422 30.596C35.3262 29.948 34.6782 29 34.1982 27.752C33.7182 26.504 33.4782 25.016 33.4782 23.288C33.4782 21.176 34.1262 19.4 35.4222 17.96C36.7422 16.52 38.5662 15.8 40.8942 15.8C43.4382 15.8 45.3342 16.52 46.5822 17.96C47.8302 19.376 48.4542 21.164 48.4542 23.324H36.8982ZM36.9342 22.208H44.9262C44.7822 20.48 44.4102 19.16 43.8102 18.248C43.2342 17.336 42.2142 16.88 40.7502 16.88C39.9102 16.88 39.0942 17.372 38.3022 18.356C37.5342 19.34 37.0782 20.624 36.9342 22.208ZM50.5841 32V31.244C51.8801 31.244 52.6361 31.004 52.8521 30.524V11.876C51.3641 11.756 50.6081 11.696 50.5841 11.696V10.868C51.0401 10.868 51.9281 10.616 53.2481 10.112C54.5921 9.584 55.5401 9.32 56.0921 9.32V30.524C56.3081 31.004 57.0641 31.244 58.3601 31.244V32H50.5841ZM59.8654 32V31.244C61.1614 31.244 61.9174 31.004 62.1334 30.524V11.876C60.6454 11.756 59.8894 11.696 59.8654 11.696V10.868C60.3214 10.868 61.2094 10.616 62.5294 10.112C63.8734 9.584 64.8214 9.32 65.3734 9.32V30.524C65.5894 31.004 66.3454 31.244 67.6414 31.244V32H59.8654ZM73.074 23.324C73.098 25.34 73.674 27.128 74.802 28.688C75.954 30.224 77.238 30.992 78.654 30.992C80.742 30.992 82.422 30.2 83.694 28.616L84.558 29.048C83.862 30.2 82.95 31.04 81.822 31.568C80.718 32.096 79.254 32.36 77.43 32.36C76.518 32.36 75.642 32.228 74.802 31.964C73.962 31.676 73.134 31.22 72.318 30.596C71.502 29.948 70.854 29 70.374 27.752C69.894 26.504 69.654 25.016 69.654 23.288C69.654 21.176 70.302 19.4 71.598 17.96C72.918 16.52 74.742 15.8 77.07 15.8C79.614 15.8 81.51 16.52 82.758 17.96C84.006 19.376 84.63 21.164 84.63 23.324H73.074ZM73.11 22.208H81.102C80.958 20.48 80.586 19.16 79.986 18.248C79.41 17.336 78.39 16.88 76.926 16.88C76.086 16.88 75.27 17.372 74.478 18.356C73.71 19.34 73.254 20.624 73.11 22.208ZM99.9359 32H86.6159L96.1559 17.24H89.2439C88.7639 17.456 88.5239 18.212 88.5239 19.508H87.7679V16.16H100.224L90.6839 30.92H98.4599C98.9399 30.704 99.1799 29.948 99.1799 28.652H99.9359V32ZM105.329 18.824C105.665 18.824 105.953 18.944 106.193 19.184C106.457 19.424 106.589 19.796 106.589 20.3C106.589 20.708 106.421 21.02 106.085 21.236C105.773 21.452 105.401 21.56 104.969 21.56C104.513 21.56 104.141 21.404 103.853 21.092C103.565 20.756 103.421 20.312 103.421 19.76C103.421 18.512 103.937 17.54 104.969 16.844C106.001 16.148 107.465 15.8 109.361 15.8C111.593 15.8 113.225 16.352 114.257 17.456C115.313 18.56 115.841 20.024 115.841 21.848V28.976C115.841 29.744 115.961 30.308 116.201 30.668C116.465 31.028 116.777 31.208 117.137 31.208C117.449 31.208 117.725 31.124 117.965 30.956C118.229 30.788 118.361 30.584 118.361 30.344H119.009C119.009 31.016 118.757 31.508 118.253 31.82C117.773 32.132 116.921 32.288 115.697 32.288C114.497 32.288 113.645 31.796 113.141 30.812C111.725 31.844 109.961 32.36 107.849 32.36C104.249 32.36 102.449 30.896 102.449 27.968C102.449 27.344 102.665 26.78 103.097 26.276C103.553 25.772 104.201 25.352 105.041 25.016C105.881 24.68 106.673 24.416 107.417 24.224C108.161 24.008 109.085 23.78 110.189 23.54C111.317 23.276 112.121 23.072 112.601 22.928C112.601 20.912 112.337 19.436 111.809 18.5C111.281 17.564 110.345 17.096 109.001 17.096C106.841 17.096 105.617 17.672 105.329 18.824ZM112.817 29.912C112.673 29.384 112.601 28.736 112.601 27.968V23.72C112.337 23.816 111.881 23.948 111.233 24.116C110.609 24.284 110.093 24.428 109.685 24.548C109.301 24.668 108.833 24.848 108.281 25.088C107.729 25.328 107.297 25.568 106.985 25.808C106.673 26.048 106.397 26.372 106.157 26.78C105.917 27.164 105.797 27.584 105.797 28.04C105.797 29.192 106.013 29.996 106.445 30.452C106.901 30.908 107.573 31.136 108.461 31.136C110.045 31.136 111.497 30.728 112.817 29.912Z" fill="#2F201A"/>
</svg>
