<svg width="25" height="25" viewBox="0 0 25 25" fill="none" xmlns="http://www.w3.org/2000/svg">
<circle cx="12.5" cy="12.5" r="12.5" fill="#E9D415"/>
<path d="M18.5609 10.1484C18.5698 10.2728 18.5698 10.3972 18.5698 10.5215C18.5698 14.3147 15.6827 18.6852 10.4061 18.6852C8.78045 18.6852 7.27031 18.2144 6 17.3972C6.23097 17.4238 6.45303 17.4327 6.69289 17.4327C8.03424 17.4327 9.26903 16.9797 10.2551 16.2068C8.99365 16.1802 7.93654 15.354 7.57232 14.217C7.75 14.2436 7.92765 14.2614 8.11422 14.2614C8.37182 14.2614 8.62946 14.2258 8.86929 14.1637C7.55457 13.8972 6.5685 12.7423 6.5685 11.3477V11.3122C6.95047 11.5254 7.39467 11.6586 7.86545 11.6764C7.0926 11.1611 6.58628 10.2817 6.58628 9.28676C6.58628 8.75377 6.72838 8.26519 6.97713 7.83879C8.38957 9.57991 10.5127 10.7169 12.8934 10.8413C12.849 10.6281 12.8223 10.4061 12.8223 10.184C12.8223 8.60275 14.1015 7.3147 15.6916 7.3147C16.5177 7.3147 17.2639 7.66114 17.788 8.22079C18.4365 8.09643 19.0583 7.85657 19.6091 7.5279C19.3959 8.19415 18.9428 8.7538 18.3477 9.1091C18.9251 9.04695 19.4847 8.88702 19.9999 8.66496C19.6091 9.23346 19.1205 9.73979 18.5609 10.1484Z" fill="#2F201A"/>
</svg>
