<svg width="36" height="36" viewBox="0 0 36 36" fill="none" xmlns="http://www.w3.org/2000/svg">
<rect x="1.5" y="1.5" width="33" height="33" fill="#2F201A" stroke="#E9D415" stroke-width="3"/>
<path d="M25.9441 13.9266C25.9568 14.1043 25.9568 14.282 25.9568 14.4596C25.9568 19.8784 21.8325 26.1221 14.2944 26.1221C11.9721 26.1221 9.81473 25.4494 8 24.282C8.32996 24.32 8.64719 24.3327 8.98984 24.3327C10.9061 24.3327 12.67 23.6855 14.0787 22.5815C12.2766 22.5434 10.7665 21.3632 10.2462 19.7388C10.5 19.7769 10.7538 19.8022 11.0203 19.8022C11.3883 19.8022 11.7564 19.7515 12.099 19.6627C10.2208 19.2819 8.81215 17.6322 8.81215 15.6398V15.5891C9.35781 15.8937 9.99238 16.084 10.6649 16.1094C9.56086 15.3733 8.83754 14.117 8.83754 12.6956C8.83754 11.9342 9.04055 11.2363 9.3959 10.6271C11.4137 13.1144 14.4467 14.7388 17.8477 14.9165C17.7842 14.6119 17.7461 14.2947 17.7461 13.9774C17.7461 11.7185 19.5736 9.87842 21.8451 9.87842C23.0253 9.87842 24.0913 10.3733 24.84 11.1728C25.7664 10.9952 26.6547 10.6525 27.4416 10.183C27.137 11.1348 26.4898 11.9343 25.6395 12.4419C26.4644 12.3531 27.2639 12.1246 27.9999 11.8074C27.4416 12.6195 26.7436 13.3428 25.9441 13.9266Z" fill="white"/>
</svg>
