<svg width="36" height="36" viewBox="0 0 36 36" fill="none" xmlns="http://www.w3.org/2000/svg">
<rect x="1.5" y="1.5" width="33" height="33" fill="#2F201A" stroke="#E9D415" stroke-width="3"/>
<path d="M24.1289 11.793C22.4922 10.1523 20.3125 9.25 17.9961 9.25C13.2148 9.25 9.32422 13.1406 9.32422 17.9219C9.32422 19.4492 9.72266 20.9414 10.4805 22.2578L9.25 26.75L13.8477 25.543C15.1133 26.2344 16.5391 26.5977 17.9922 26.5977H17.9961C22.7734 26.5977 26.75 22.707 26.75 17.9258C26.75 15.6094 25.7656 13.4336 24.1289 11.793ZM17.9961 25.1367C16.6992 25.1367 15.4297 24.7891 14.3242 24.1328L14.0625 23.9766L11.3359 24.6914L12.0625 22.0312L11.8906 21.7578C11.168 20.6094 10.7891 19.2852 10.7891 17.9219C10.7891 13.9492 14.0234 10.7148 18 10.7148C19.9258 10.7148 21.7344 11.4648 23.0938 12.8281C24.4531 14.1914 25.2891 16 25.2852 17.9258C25.2852 21.9023 21.9688 25.1367 17.9961 25.1367ZM21.9492 19.7383C21.7344 19.6289 20.668 19.1055 20.4688 19.0352C20.2695 18.9609 20.125 18.9258 19.9805 19.1445C19.8359 19.3633 19.4219 19.8477 19.293 19.9961C19.168 20.1406 19.0391 20.1602 18.8242 20.0508C17.5508 19.4141 16.7148 18.9141 15.875 17.4727C15.6523 17.0898 16.0977 17.1172 16.5117 16.2891C16.582 16.1445 16.5469 16.0195 16.4922 15.9102C16.4375 15.8008 16.0039 14.7344 15.8242 14.3008C15.6484 13.8789 15.4688 13.9375 15.3359 13.9297C15.2109 13.9219 15.0664 13.9219 14.9219 13.9219C14.7773 13.9219 14.543 13.9766 14.3438 14.1914C14.1445 14.4102 13.5859 14.9336 13.5859 16C13.5859 17.0664 14.3633 18.0977 14.4688 18.2422C14.5781 18.3867 15.9961 20.5742 18.1719 21.5156C19.5469 22.1094 20.0859 22.1602 20.7734 22.0586C21.1914 21.9961 22.0547 21.5352 22.2344 21.0273C22.4141 20.5195 22.4141 20.0859 22.3594 19.9961C22.3086 19.8984 22.1641 19.8438 21.9492 19.7383Z" fill="white"/>
</svg>
